<mxfile host="65bd71144e">
    <diagram id="X9YFU1M3zQTbdFv3TltE" name="페이지-1">
        <mxGraphModel dx="1639" dy="706" grid="1" gridSize="10" guides="1" tooltips="1" connect="1" arrows="1" fold="1" page="1" pageScale="1" pageWidth="1600" pageHeight="1200" background="none" math="0" shadow="0">
            <root>
                <mxCell id="0"/>
                <mxCell id="1" parent="0"/>
                <mxCell id="3" value="" style="rounded=0;whiteSpace=wrap;html=1;container=1;collapsible=0;expand=0;resizable=0;rotatable=0;movable=0;" parent="1" vertex="1">
                    <mxGeometry x="300" y="100" width="1000" height="500" as="geometry">
                        <mxRectangle x="270" y="120" width="50" height="40" as="alternateBounds"/>
                    </mxGeometry>
                </mxCell>
                <mxCell id="6" value="" style="ellipse;whiteSpace=wrap;html=1;aspect=fixed;fillColor=#FFFFFF;" parent="3" vertex="1">
                    <mxGeometry x="360" y="250" width="20" height="20" as="geometry"/>
                </mxCell>
                <mxCell id="25" value="" style="rounded=0;whiteSpace=wrap;html=1;fillColor=#FFFFFF;" parent="3" vertex="1">
                    <mxGeometry x="30" y="40" width="10" height="80" as="geometry"/>
                </mxCell>
                <mxCell id="27" value="0.16" style="shape=curlyBracket;whiteSpace=wrap;html=1;rounded=1;flipH=1;labelPosition=right;verticalLabelPosition=middle;align=left;verticalAlign=middle;fillColor=#FFFFFF;" parent="3" vertex="1">
                    <mxGeometry x="50" y="40" width="20" height="80" as="geometry"/>
                </mxCell>
                <mxCell id="28" value="0.02" style="shape=curlyBracket;whiteSpace=wrap;html=1;rounded=1;labelPosition=left;verticalLabelPosition=middle;align=right;verticalAlign=middle;fillColor=#FFFFFF;rotation=-90;rotatable=1;enumerate=0;" parent="3" vertex="1">
                    <mxGeometry x="28.75" y="131.75" width="12.5" height="10" as="geometry"/>
                </mxCell>
                <mxCell id="30" value="0.04" style="shape=curlyBracket;whiteSpace=wrap;html=1;rounded=1;flipH=1;labelPosition=right;verticalLabelPosition=middle;align=left;verticalAlign=middle;fillColor=#FFFFFF;" parent="3" vertex="1">
                    <mxGeometry x="390" y="250" width="20" height="20" as="geometry"/>
                </mxCell>
                <mxCell id="34" value="0.06&lt;br&gt;" style="shape=curlyBracket;whiteSpace=wrap;html=1;rounded=1;labelPosition=left;verticalLabelPosition=middle;align=right;verticalAlign=middle;fillColor=#FFFFFF;rotation=90;rotatable=1;enumerate=0;" parent="3" vertex="1">
                    <mxGeometry x="9.96" y="21.01" width="11.16" height="29.69" as="geometry"/>
                </mxCell>
                <mxCell id="38" value="" style="rounded=0;whiteSpace=wrap;html=1;fillColor=#FFFFFF;" parent="3" vertex="1">
                    <mxGeometry x="200" y="370" width="10" height="80" as="geometry"/>
                </mxCell>
                <mxCell id="40" style="edgeStyle=none;html=1;entryX=0.5;entryY=0;entryDx=0;entryDy=0;endArrow=none;endFill=0;rounded=0;" parent="3" source="41" edge="1">
                    <mxGeometry relative="1" as="geometry">
                        <mxPoint x="205" y="370" as="targetPoint"/>
                        <Array as="points">
                            <mxPoint x="250" y="305"/>
                        </Array>
                    </mxGeometry>
                </mxCell>
                <mxCell id="41" value="secondary player" style="text;html=1;strokeColor=none;fillColor=none;align=center;verticalAlign=middle;whiteSpace=wrap;rounded=0;" parent="3" vertex="1">
                    <mxGeometry x="290" y="290" width="110" height="30" as="geometry"/>
                </mxCell>
                <mxCell id="42" value="0.16" style="shape=curlyBracket;whiteSpace=wrap;html=1;rounded=1;flipH=1;labelPosition=right;verticalLabelPosition=middle;align=left;verticalAlign=middle;fillColor=#FFFFFF;" parent="3" vertex="1">
                    <mxGeometry x="220" y="370" width="20" height="80" as="geometry"/>
                </mxCell>
                <mxCell id="43" value="0.02" style="shape=curlyBracket;whiteSpace=wrap;html=1;rounded=1;labelPosition=left;verticalLabelPosition=middle;align=right;verticalAlign=middle;fillColor=#FFFFFF;rotation=-90;rotatable=0;enumerate=0;expand=0;resizable=0;recursiveResize=1;cloneable=1;" parent="3" vertex="1">
                    <mxGeometry x="198.75" y="460" width="12.5" height="10" as="geometry"/>
                </mxCell>
                <mxCell id="45" value="0.4" style="shape=curlyBracket;whiteSpace=wrap;html=1;rounded=1;labelPosition=left;verticalLabelPosition=middle;align=right;verticalAlign=middle;fillColor=#FFFFFF;rotation=90;rotatable=1;enumerate=0;" parent="3" vertex="1">
                    <mxGeometry x="95" y="255" width="11.16" height="200" as="geometry"/>
                </mxCell>
                <mxCell id="46" style="edgeStyle=none;html=1;entryX=0.712;entryY=0.054;entryDx=0;entryDy=0;endArrow=none;endFill=0;rounded=0;entryPerimeter=0;" parent="3" source="47" target="6" edge="1">
                    <mxGeometry relative="1" as="geometry">
                        <mxPoint x="370" y="250" as="targetPoint"/>
                        <Array as="points">
                            <mxPoint x="400" y="215"/>
                        </Array>
                    </mxGeometry>
                </mxCell>
                <mxCell id="47" value="ball" style="text;html=1;strokeColor=none;fillColor=none;align=center;verticalAlign=middle;whiteSpace=wrap;rounded=0;" parent="3" vertex="1">
                    <mxGeometry x="430" y="200" width="30" height="30" as="geometry"/>
                </mxCell>
                <mxCell id="5" value="" style="endArrow=none;dashed=1;html=1;dashPattern=1 3;strokeWidth=2;exitX=0.5;exitY=1;exitDx=0;exitDy=0;entryX=0.5;entryY=0;entryDx=0;entryDy=0;" parent="1" source="3" target="3" edge="1">
                    <mxGeometry width="50" height="50" relative="1" as="geometry">
                        <mxPoint x="770" y="350" as="sourcePoint"/>
                        <mxPoint x="1210" y="690" as="targetPoint"/>
                    </mxGeometry>
                </mxCell>
                <mxCell id="9" style="edgeStyle=none;html=1;entryX=0;entryY=1;entryDx=0;entryDy=0;" parent="1" source="8" target="3" edge="1">
                    <mxGeometry relative="1" as="geometry"/>
                </mxCell>
                <mxCell id="8" value="(-1,0)" style="text;html=1;strokeColor=none;fillColor=none;align=center;verticalAlign=middle;whiteSpace=wrap;rounded=0;" parent="1" vertex="1">
                    <mxGeometry x="180" y="620" width="60" height="30" as="geometry"/>
                </mxCell>
                <mxCell id="10" value="(0,0)" style="text;html=1;strokeColor=none;fillColor=none;align=center;verticalAlign=middle;whiteSpace=wrap;rounded=0;" parent="1" vertex="1">
                    <mxGeometry x="770" y="610" width="60" height="30" as="geometry"/>
                </mxCell>
                <mxCell id="11" value="" style="endArrow=classic;html=1;exitX=0.5;exitY=1;exitDx=0;exitDy=0;" parent="1" source="3" edge="1">
                    <mxGeometry width="50" height="50" relative="1" as="geometry">
                        <mxPoint x="770" y="360" as="sourcePoint"/>
                        <mxPoint x="1530" y="600" as="targetPoint"/>
                    </mxGeometry>
                </mxCell>
                <mxCell id="12" value="" style="endArrow=classic;html=1;exitX=0.5;exitY=0;exitDx=0;exitDy=0;" parent="1" source="3" edge="1">
                    <mxGeometry width="50" height="50" relative="1" as="geometry">
                        <mxPoint x="810" y="610" as="sourcePoint"/>
                        <mxPoint x="800" y="22" as="targetPoint"/>
                    </mxGeometry>
                </mxCell>
                <mxCell id="13" value="x" style="text;html=1;strokeColor=none;fillColor=none;align=center;verticalAlign=middle;whiteSpace=wrap;rounded=0;" parent="1" vertex="1">
                    <mxGeometry x="1510" y="585" width="60" height="30" as="geometry"/>
                </mxCell>
                <mxCell id="14" value="y" style="text;html=1;strokeColor=none;fillColor=none;align=center;verticalAlign=middle;whiteSpace=wrap;rounded=0;" parent="1" vertex="1">
                    <mxGeometry x="770" width="60" height="30" as="geometry"/>
                </mxCell>
                <mxCell id="23" style="edgeStyle=none;html=1;entryX=1;entryY=0;entryDx=0;entryDy=0;" parent="1" source="15" target="3" edge="1">
                    <mxGeometry relative="1" as="geometry"/>
                </mxCell>
                <mxCell id="15" value="(1,1)" style="text;html=1;strokeColor=none;fillColor=none;align=center;verticalAlign=middle;whiteSpace=wrap;rounded=0;" parent="1" vertex="1">
                    <mxGeometry x="1310" y="60" width="60" height="30" as="geometry"/>
                </mxCell>
                <mxCell id="24" style="edgeStyle=none;html=1;entryX=0;entryY=0;entryDx=0;entryDy=0;" parent="1" source="16" target="3" edge="1">
                    <mxGeometry relative="1" as="geometry"/>
                </mxCell>
                <mxCell id="16" value="(-1,1)" style="text;html=1;strokeColor=none;fillColor=none;align=center;verticalAlign=middle;whiteSpace=wrap;rounded=0;" parent="1" vertex="1">
                    <mxGeometry x="220" y="50" width="60" height="30" as="geometry"/>
                </mxCell>
                <mxCell id="18" style="edgeStyle=none;html=1;" parent="1" source="17" edge="1">
                    <mxGeometry relative="1" as="geometry">
                        <mxPoint x="1300" y="600" as="targetPoint"/>
                    </mxGeometry>
                </mxCell>
                <mxCell id="17" value="(1,0)" style="text;html=1;strokeColor=none;fillColor=none;align=center;verticalAlign=middle;whiteSpace=wrap;rounded=0;" parent="1" vertex="1">
                    <mxGeometry x="1320" y="630" width="60" height="30" as="geometry"/>
                </mxCell>
                <mxCell id="20" style="edgeStyle=none;html=1;" parent="1" source="19" edge="1">
                    <mxGeometry relative="1" as="geometry">
                        <mxPoint x="800" y="100" as="targetPoint"/>
                    </mxGeometry>
                </mxCell>
                <mxCell id="19" value="(0,1)" style="text;html=1;strokeColor=none;fillColor=none;align=center;verticalAlign=middle;whiteSpace=wrap;rounded=0;" parent="1" vertex="1">
                    <mxGeometry x="820" y="50" width="60" height="30" as="geometry"/>
                </mxCell>
                <mxCell id="37" style="edgeStyle=none;html=1;entryX=0.5;entryY=0;entryDx=0;entryDy=0;endArrow=none;endFill=0;rounded=0;" parent="1" source="36" target="25" edge="1">
                    <mxGeometry relative="1" as="geometry">
                        <Array as="points">
                            <mxPoint x="380" y="75"/>
                        </Array>
                    </mxGeometry>
                </mxCell>
                <mxCell id="36" value="primary player" style="text;html=1;strokeColor=none;fillColor=none;align=center;verticalAlign=middle;whiteSpace=wrap;rounded=0;" parent="1" vertex="1">
                    <mxGeometry x="420" y="60" width="90" height="30" as="geometry"/>
                </mxCell>
                <mxCell id="51" value="&lt;h1&gt;GAME API scheme&lt;/h1&gt;&lt;div&gt;1. 패들이동(시간, 방향 : {위, 아래, 멈춤})&lt;/div&gt;&lt;div&gt;2. 공 튕김(시간, 공 방향)&lt;/div&gt;&lt;div&gt;3. 현재 상황 요청&lt;/div&gt;&lt;div&gt;&lt;br&gt;&lt;/div&gt;" style="text;html=1;strokeColor=none;fillColor=none;spacing=5;spacingTop=-20;whiteSpace=wrap;overflow=hidden;rounded=0;" vertex="1" parent="1">
                    <mxGeometry x="270" y="930" width="250" height="120" as="geometry"/>
                </mxCell>
                <mxCell id="53" value="클라이언트" style="rounded=1;whiteSpace=wrap;html=1;" vertex="1" parent="1">
                    <mxGeometry x="120" y="810" width="130" height="120" as="geometry"/>
                </mxCell>
                <mxCell id="60" style="edgeStyle=none;html=1;entryX=0;entryY=0.5;entryDx=0;entryDy=0;startArrow=classic;startFill=1;" edge="1" parent="1" source="54" target="55">
                    <mxGeometry relative="1" as="geometry"/>
                </mxCell>
                <mxCell id="54" value="게임 서버" style="rounded=1;whiteSpace=wrap;html=1;" vertex="1" parent="1">
                    <mxGeometry x="690" y="920" width="130" height="120" as="geometry"/>
                </mxCell>
                <mxCell id="55" value="웹 서버" style="rounded=1;whiteSpace=wrap;html=1;" vertex="1" parent="1">
                    <mxGeometry x="1170" y="920" width="130" height="120" as="geometry"/>
                </mxCell>
                <mxCell id="57" style="edgeStyle=none;html=1;startArrow=classic;startFill=1;" edge="1" parent="1" source="56" target="54">
                    <mxGeometry relative="1" as="geometry"/>
                </mxCell>
                <mxCell id="56" value="클라이언트" style="rounded=1;whiteSpace=wrap;html=1;" vertex="1" parent="1">
                    <mxGeometry x="120" y="1030" width="130" height="120" as="geometry"/>
                </mxCell>
                <mxCell id="58" style="edgeStyle=none;html=1;startArrow=classic;startFill=1;exitX=1;exitY=0.5;exitDx=0;exitDy=0;entryX=-0.01;entryY=0.416;entryDx=0;entryDy=0;entryPerimeter=0;" edge="1" parent="1" source="53" target="54">
                    <mxGeometry relative="1" as="geometry">
                        <mxPoint x="260" y="1087.4561403508771" as="sourcePoint"/>
                        <mxPoint x="700" y="1002.5438596491229" as="targetPoint"/>
                    </mxGeometry>
                </mxCell>
                <mxCell id="59" value="&lt;h1&gt;RESULT API scheme&lt;/h1&gt;&lt;div&gt;1. 게임 생성 (플레이어1, 플레이어2, 게임 식별자 등)&lt;/div&gt;&lt;div&gt;&lt;br&gt;&lt;/div&gt;&lt;div&gt;&lt;br&gt;&lt;/div&gt;&lt;div&gt;1. 게임 결과 보고 (게임 식별자, 결과 데이터 등)&lt;/div&gt;" style="text;html=1;strokeColor=none;fillColor=none;spacing=5;spacingTop=-20;whiteSpace=wrap;overflow=hidden;rounded=0;" vertex="1" parent="1">
                    <mxGeometry x="850" y="850" width="290" height="120" as="geometry"/>
                </mxCell>
            </root>
        </mxGraphModel>
    </diagram>
</mxfile>